<?xml version="1.0" standalone="no"?>
<!DOCTYPE svg PUBLIC "-//W3C//DTD SVG 20010904//EN"
 "http://www.w3.org/TR/2001/REC-SVG-20010904/DTD/svg10.dtd">
<svg version="1.0" xmlns="http://www.w3.org/2000/svg"
 width="662.000000pt" height="662.000000pt" viewBox="0 0 662.000000 662.000000"
 preserveAspectRatio="xMidYMid meet">
<metadata>
Created by potrace 1.16, written by Peter Selinger 2001-2019
</metadata>
<g transform="translate(0.000000,662.000000) scale(0.100000,-0.100000)"
fill="#000000" stroke="none">
<path d="M482 6590 c5 -35 -2 -36 -61 -15 -46 16 -206 10 -230 -9 -10 -8 -12
-30 -8 -96 6 -83 5 -84 -9 -45 -8 22 -21 43 -28 47 -8 5 -17 22 -21 38 -10 46
-20 36 -17 -17 5 -90 66 -629 82 -733 5 -36 19 -152 30 -259 12 -107 23 -198
25 -202 3 -3 7 -35 10 -70 22 -257 28 -278 74 -266 17 4 20 -4 30 -70 6 -40
11 -83 11 -93 0 -17 7 -20 54 -20 30 0 67 -5 81 -10 15 -6 33 -6 41 -2 12 7
11 12 -7 31 -18 19 -19 25 -8 32 21 13 30 11 45 -8 7 -10 14 -13 14 -7 0 18
118 13 125 -4 4 -12 9 -12 25 3 11 10 20 14 20 9 0 -5 5 -1 11 9 13 22 89 25
89 3 0 -24 -28 -82 -55 -114 -23 -27 -24 -32 -10 -46 14 -14 14 -18 -6 -46
-14 -18 -25 -53 -30 -87 -10 -82 -25 -118 -43 -104 -20 17 -28 0 -21 -46 4
-25 2 -44 -8 -57 -13 -18 -14 -18 -25 12 -12 35 -48 60 -64 44 -19 -19 -11
-104 12 -126 15 -16 22 -18 32 -8 21 21 26 13 15 -25 -6 -21 -12 -39 -13 -41
-1 -1 -19 1 -41 6 -39 9 -120 -8 -133 -28 -3 -4 -15 -12 -27 -19 -15 -7 -23
-21 -23 -36 0 -32 -27 -33 -39 -2 -5 13 -16 91 -25 173 -23 214 -38 318 -47
328 -5 6 -9 27 -9 48 0 31 -4 38 -20 38 -11 0 -20 -5 -20 -11 0 -5 4 -7 10 -4
5 3 10 1 10 -4 0 -6 -4 -11 -10 -11 -5 0 -10 -15 -10 -34 0 -19 -6 -36 -13
-39 -9 -3 -9 -7 0 -18 6 -8 16 -45 21 -82 7 -59 7 -69 -8 -77 -13 -7 -15 -19
-10 -67 4 -32 6 -60 4 -62 -1 -1 -13 4 -26 13 -18 13 -23 26 -23 59 0 38 -2
42 -27 45 -31 4 -33 -2 -22 -95 4 -33 12 -53 19 -53 8 0 11 8 8 20 -6 23 9 27
26 6 7 -8 27 -17 46 -20 39 -8 44 -18 46 -99 2 -65 -5 -78 -47 -77 -96 0 -234
9 -243 15 -7 4 -11 -15 -11 -58 l0 -65 118 3 c300 8 319 8 344 -9 22 -14 39
-15 139 -6 201 18 251 14 305 -19 25 -17 59 -33 74 -36 36 -8 70 -40 70 -67 0
-11 8 -27 17 -34 20 -14 20 -17 8 -269 -6 -130 -4 -174 9 -235 18 -86 19 -100
7 -100 -4 0 -14 26 -21 58 -20 95 -38 123 -102 157 -43 23 -82 34 -155 43 -91
12 -99 11 -113 -5 -8 -10 -34 -31 -57 -46 -64 -44 -97 -119 -96 -222 1 -116 2
-125 17 -125 7 0 16 -14 20 -31 5 -27 8 -30 21 -19 9 7 15 8 15 2 0 -5 9 -8
20 -5 17 4 20 0 20 -25 0 -35 -34 -50 -60 -27 -24 21 -30 19 -31 -12 0 -25 -1
-42 -8 -118 -2 -20 -59 -91 -67 -83 -2 3 7 21 21 41 13 21 21 37 16 37 -12 0
-35 -30 -62 -83 -13 -27 -40 -62 -59 -78 -83 -71 -143 -138 -175 -199 -23 -42
-32 -67 -25 -74 6 -6 10 -23 10 -38 0 -15 5 -28 10 -28 7 0 7 -7 0 -20 -6 -11
-8 -25 -5 -30 3 -5 1 -11 -5 -15 -5 -3 -10 1 -10 9 0 9 -6 16 -13 16 -18 0
-38 -149 -43 -314 -2 -72 -6 -147 -9 -166 -3 -19 -8 -89 -10 -155 -3 -101 -6
-121 -22 -132 -10 -7 -24 -17 -31 -23 -15 -13 -16 -76 -1 -86 8 -5 10 -33 6
-88 -3 -49 -1 -99 6 -126 19 -73 89 -190 173 -291 44 -52 86 -106 95 -119 19
-28 15 -56 38 318 6 95 18 208 27 250 12 59 15 105 10 193 -7 124 -4 144 24
159 16 8 113 -1 161 -16 27 -8 33 -203 9 -334 -74 -407 -91 -538 -89 -675 5
-214 3 -237 -24 -315 -30 -87 -38 -187 -16 -201 12 -7 11 -9 -2 -9 -43 0 -73
77 -53 136 20 58 16 64 -11 19 -19 -30 -23 -48 -19 -76 4 -22 2 -39 -5 -43
-20 -13 -11 -33 20 -46 26 -11 28 -15 14 -23 -17 -9 -43 -6 -80 9 -18 7 -18 6
-7 -9 8 -8 25 -17 40 -19 15 -2 28 -10 29 -18 1 -8 4 -32 8 -52 l6 -38 594 0
c471 0 594 3 593 13 -5 20 165 22 185 2 14 -13 175 -15 1476 -15 1292 0 1460
2 1455 15 -5 12 0 14 27 9 19 -4 42 -11 51 -15 9 -5 293 -9 631 -9 582 0 615
1 630 18 10 10 17 24 17 30 0 7 7 20 15 30 76 87 103 147 81 177 -11 15 -15
15 -49 -7 -20 -12 -36 -28 -37 -35 0 -7 -9 -17 -20 -23 -18 -9 -20 -8 -20 15
0 14 7 28 15 31 17 7 21 34 5 34 -5 0 -10 7 -10 15 0 8 -5 15 -10 15 -6 0 -10
8 -8 17 2 12 -3 17 -14 15 -21 -3 -25 27 -6 46 7 7 9 12 6 12 -7 0 25 96 35
107 14 14 6 34 -12 31 -10 -2 -28 6 -40 16 -32 29 -29 127 5 203 15 32 28 67
30 78 5 30 9 43 33 125 40 137 50 174 60 233 6 32 13 62 16 68 13 20 65 9 98
-21 19 -16 37 -30 40 -30 3 0 9 20 12 45 4 24 14 50 21 56 14 11 80 8 144 -7
24 -5 26 -2 36 51 6 35 7 105 3 183 -5 86 -4 131 3 139 8 10 6 19 -7 33 -14
16 -15 25 -7 49 8 22 7 57 -3 128 -9 68 -11 121 -5 173 5 41 14 118 20 170 18
156 -1 234 -85 354 l-48 70 23 40 c32 56 34 180 3 219 -11 15 -26 27 -32 27
-6 0 -11 7 -11 16 0 10 6 14 15 10 11 -4 15 2 15 22 0 15 9 59 20 97 24 86 25
109 3 130 -11 12 -13 19 -5 24 18 11 -14 50 -36 44 -12 -3 -32 7 -53 27 -19
17 -49 38 -66 47 -36 17 -45 38 -13 30 11 -3 23 -1 26 5 8 12 -17 294 -27 310
-11 18 -17 9 -34 -60 -14 -53 -14 -74 -4 -140 14 -93 14 -121 2 -133 -13 -13
-85 22 -78 39 3 9 -3 12 -22 10 -24 -3 -28 2 -42 47 -8 28 -20 53 -26 57 -6 5
-6 11 3 20 6 6 12 9 12 5 0 -4 11 3 25 15 16 14 25 32 25 50 0 16 6 41 14 56
7 15 17 43 21 62 4 19 14 51 22 70 8 19 19 44 23 55 13 30 19 71 25 160 3 44
10 92 17 108 9 23 8 31 -7 47 -16 18 -16 20 11 55 16 21 29 52 31 73 3 44 -20
138 -40 160 -38 44 -45 74 -36 167 4 50 7 115 7 145 0 52 -1 53 -9 20 -5 -19
-11 -77 -13 -128 -2 -52 -6 -96 -9 -98 -2 -3 -25 23 -50 57 -38 51 -44 65 -36
81 11 20 6 30 -33 69 -14 15 -17 15 -22 2 -12 -29 -6 -43 15 -40 12 1 23 -2
25 -8 6 -16 -75 -9 -95 9 -10 9 -25 16 -34 16 -9 0 -18 4 -21 9 -3 4 -24 11
-46 15 -34 5 -40 10 -40 31 0 30 20 43 32 21 11 -19 58 -22 58 -3 0 22 -34 47
-63 47 -14 0 -47 -14 -73 -32 l-47 -32 -16 24 c-27 40 -62 80 -72 80 -5 0 -9
-8 -9 -18 0 -10 -7 -27 -15 -38 -25 -33 -19 -60 18 -70 31 -9 32 -11 35 -70 2
-33 -3 -78 -10 -99 -13 -39 -15 -40 -57 -39 -53 1 -88 33 -71 64 16 30 11 35
-13 12 -20 -19 -99 -34 -110 -21 -9 10 -14 89 -6 94 13 9 -14 45 -33 45 -13 0
-18 8 -18 30 0 48 -26 100 -49 100 -17 0 -21 6 -21 29 0 38 -26 67 -46 50 -8
-7 -17 -9 -20 -6 -3 3 2 11 11 18 9 8 24 21 33 30 31 30 60 39 120 39 56 0 61
-2 86 -35 15 -19 33 -35 41 -35 7 0 22 -12 33 -27 16 -21 24 -25 32 -17 9 9 8
23 -3 56 -27 79 -48 113 -80 132 -45 25 -126 32 -163 14 -16 -9 -34 -13 -40
-11 -19 6 -82 -73 -95 -119 -6 -24 -9 -68 -6 -98 4 -39 2 -60 -9 -74 -20 -28
-19 -60 2 -52 9 4 23 1 31 -6 11 -9 16 -9 22 1 9 14 61 5 61 -11 0 -6 -7 -8
-15 -4 -8 3 -21 -2 -30 -10 -9 -9 -22 -13 -30 -10 -18 7 -73 -23 -80 -44 -3
-8 -19 -30 -35 -47 -29 -32 -49 -40 -64 -26 -16 16 -84 32 -113 27 -27 -5 -33
-11 -33 -32 0 -25 -1 -25 -26 13 -15 22 -32 45 -39 50 -16 13 -45 70 -45 88 0
8 -9 22 -20 32 -11 10 -20 24 -20 31 0 8 -16 20 -35 29 -20 8 -50 28 -66 45
-32 31 -90 42 -105 19 -4 -8 -10 -5 -17 7 -10 18 -11 18 -16 -2 -4 -12 -26
-37 -51 -56 -29 -21 -57 -56 -78 -96 -31 -58 -53 -75 -67 -52 -3 6 -17 10 -30
10 -15 0 -29 9 -36 21 -10 20 -9 21 15 15 22 -5 26 -3 26 15 0 20 -3 21 -47
14 -70 -10 -77 -17 -90 -87 -6 -35 -14 -73 -18 -85 -6 -17 -3 -23 9 -23 9 0
16 -4 16 -10 0 -5 6 -10 13 -10 16 0 57 -37 57 -50 0 -17 -20 -11 -43 13 -41
42 -69 51 -110 34 -19 -9 -38 -13 -41 -9 -12 11 -5 41 12 52 12 8 14 13 4 16
-8 4 1 22 28 56 43 55 50 75 23 63 -28 -12 -81 -18 -105 -11 -24 6 -68 65 -68
90 0 26 17 26 35 0 12 -19 13 -29 5 -39 -8 -10 -3 -14 26 -20 36 -6 73 9 43
19 -55 17 -53 14 -35 41 14 22 15 25 1 25 -29 0 -15 19 17 22 42 4 47 24 7 32
-37 7 -49 1 -49 -25 0 -20 -10 -25 -25 -10 -6 5 -21 12 -34 16 -23 7 -24 6
-18 -36 5 -37 4 -40 -5 -21 -7 14 -17 21 -26 17 -8 -3 -27 6 -42 19 l-29 24
25 23 c13 12 24 28 24 36 0 7 4 13 9 13 5 0 12 12 16 28 7 30 79 112 99 112 7
0 31 14 52 31 34 27 45 30 84 26 52 -6 80 -34 80 -81 0 -17 6 -51 14 -76 11
-39 14 -42 20 -22 4 12 11 22 16 22 4 0 11 16 14 35 4 19 13 47 21 62 17 32
20 73 6 73 -5 0 -11 10 -13 23 -2 12 -7 22 -13 22 -5 0 -16 4 -23 9 -10 6 -10
11 4 21 16 12 16 14 -5 41 -12 16 -29 29 -37 29 -7 0 -14 3 -14 8 -1 12 54 77
65 77 6 0 27 -20 48 -44 l37 -45 2 -213 2 -213 6 200 c3 110 7 200 10 200 10
0 160 -173 160 -183 0 -6 8 -13 18 -17 9 -3 31 -24 47 -46 17 -22 37 -48 46
-57 9 -9 19 -26 21 -37 2 -11 10 -19 17 -17 8 2 24 -6 36 -18 12 -11 25 -17
28 -13 4 3 44 7 90 8 45 1 85 3 89 4 4 0 8 18 10 39 3 34 6 37 37 40 38 4 55
-12 40 -39 -14 -27 -11 -39 10 -39 17 0 20 6 18 40 -1 21 2 42 6 46 13 13 36
-18 39 -54 2 -29 8 -38 25 -40 21 -3 22 -1 11 29 -7 21 -8 37 -1 48 5 9 9 29
8 46 -1 22 -8 31 -28 36 -16 4 -28 3 -30 -4 -3 -9 -8 -9 -17 0 -14 13 -4 37
12 27 6 -4 13 -3 17 2 3 5 17 15 31 22 14 6 32 16 40 21 8 5 28 15 43 22 16 7
24 15 17 17 -7 3 -22 0 -33 -6 -32 -15 -89 -24 -82 -12 3 6 12 10 19 10 16 0
23 78 31 330 l5 165 -36 -40 c-83 -93 -90 -107 -89 -179 1 -54 -1 -66 -12 -62
-8 3 -27 -1 -43 -9 -39 -20 -43 -19 -35 8 4 12 -35 -34 -86 -102 l-93 -124 1
-76 0 -76 -6 69 -6 69 -45 -57 c-25 -31 -44 -64 -42 -74 5 -24 -97 88 -110
120 -5 16 -13 26 -17 23 -8 -5 -61 49 -129 131 l-42 52 0 101 0 101 82 97 c45
54 88 102 95 106 7 4 13 12 13 18 0 11 101 139 110 139 3 0 4 -184 2 -410 -2
-225 0 -410 4 -409 5 0 26 23 47 52 l37 52 0 162 c0 102 4 163 10 163 6 0 9
-55 8 -149 l-3 -150 23 22 c12 11 36 42 52 67 29 45 30 50 30 169 0 85 3 120
11 115 7 -4 9 -43 5 -116 -4 -100 -4 -108 11 -96 9 7 23 29 31 48 8 19 31 52
52 73 34 36 37 43 32 82 -5 48 5 135 16 135 4 0 6 -35 4 -77 -3 -51 -1 -75 6
-68 5 6 33 37 61 69 49 57 51 61 51 120 0 69 -8 59 128 164 87 67 113 75 68
21 -36 -43 -22 -52 15 -10 20 23 26 37 19 46 -9 11 5 35 22 35 7 0 3 -229 -7
-455 -2 -55 -5 -147 -5 -205 l0 -105 -83 -29 c-45 -16 -77 -31 -71 -33 6 -2
41 7 78 21 57 22 68 23 73 11 3 -9 3 -24 0 -35 -3 -11 -1 -20 4 -20 5 0 9 18
9 40 0 26 5 40 13 40 9 0 11 -12 9 -40 -3 -25 0 -40 7 -40 7 0 12 41 13 123 0
67 2 135 3 152 1 16 -1 41 -6 55 -6 22 -8 20 -9 -15 -1 -22 -3 -62 -5 -90 -1
-27 -3 -68 -4 -89 0 -23 -5 -36 -9 -30 -10 11 0 264 11 264 4 0 12 0 17 0 6 0
10 5 10 11 0 6 -8 9 -19 6 -16 -4 -18 2 -19 49 0 30 4 56 9 60 5 3 9 -17 9
-45 0 -28 5 -51 10 -51 6 0 10 56 10 148 0 145 7 222 19 222 3 0 21 -23 39
-51 l33 -51 -5 -236 c-3 -131 -9 -285 -12 -343 l-6 -107 41 -42 c24 -25 41
-52 41 -66 0 -12 4 -25 9 -28 10 -6 21 162 21 319 0 144 11 355 19 355 7 -1
78 -100 99 -137 7 -13 15 -58 18 -101 3 -42 9 -107 14 -144 6 -36 7 -74 4 -82
-3 -9 -3 -24 0 -33 6 -15 8 -14 21 4 8 12 14 30 13 40 -3 35 2 54 12 48 6 -3
10 1 10 9 0 9 -5 16 -11 16 -7 0 -9 9 -6 21 3 12 2 32 -3 45 -7 18 -6 22 5 17
22 -8 18 10 -5 30 -11 9 -20 22 -20 28 0 7 25 -14 55 -46 30 -32 55 -62 55
-65 0 -4 11 -20 25 -36 14 -16 32 -44 41 -63 9 -18 31 -47 50 -63 19 -17 34
-34 34 -40 0 -11 39 -65 93 -128 23 -27 36 -51 34 -62 -3 -9 1 -22 9 -29 8 -6
14 -26 15 -43 0 -29 1 -30 10 -7 15 37 29 185 18 195 -5 6 -9 -5 -10 -30 -1
-42 -16 -110 -18 -83 0 9 -10 24 -21 34 -11 10 -20 23 -20 29 0 6 -18 33 -40
60 -22 26 -40 52 -40 57 0 5 -22 33 -49 63 -27 30 -52 63 -56 75 -3 12 -10 21
-14 21 -9 0 -79 93 -99 130 -7 14 -28 43 -47 65 -34 38 -46 63 -25 50 6 -3 10
-1 10 5 0 7 -8 9 -19 5 -12 -4 -21 0 -25 11 -5 13 -2 15 15 11 22 -6 22 -5 14
111 -3 64 -11 125 -17 135 -9 18 -11 57 -7 202 1 39 -1 81 -5 94 -5 13 -3 28
3 34 16 16 14 27 -4 21 -9 -4 -15 0 -15 9 0 8 6 18 13 20 7 3 5 6 -5 6 -24 1
-23 22 2 28 11 3 20 10 20 15 0 5 -4 7 -9 4 -31 -19 -65 45 -63 117 1 23 -2
36 -8 32 -6 -3 -10 0 -11 7 0 7 -5 0 -11 -16 -8 -22 -8 -31 0 -34 6 -2 9 -9 6
-17 -3 -7 -1 -23 6 -34 6 -12 7 -21 2 -21 -12 0 -8 -47 12 -146 27 -140 30
-207 11 -247 -13 -28 -14 -40 -5 -57 13 -24 53 -231 46 -237 -2 -2 -29 30 -60
73 l-56 77 -1 126 c0 97 -3 120 -11 101 -9 -24 -10 -24 -18 -5 -13 34 -19 169
-20 413 0 153 -3 231 -10 227 -5 -3 -10 -17 -10 -31 0 -13 -4 -24 -10 -24 -5
0 -10 4 -10 9 0 19 -32 41 -60 41 -16 0 -32 5 -35 10 -4 6 -58 10 -129 10
l-122 0 -115 -146 c-63 -80 -117 -153 -121 -162 -6 -18 -88 -100 -88 -90 0 10
93 139 198 277 l93 121 -936 0 c-514 0 -935 -2 -935 -5 0 -3 71 -92 158 -199
190 -234 265 -331 271 -348 2 -7 -8 1 -24 17 -28 30 -240 281 -303 359 -19 23
-43 52 -55 66 -12 14 -37 44 -55 68 l-34 42 -170 0 -171 0 7 -242 c15 -590 19
-674 28 -685 8 -10 6 -13 -5 -13 -10 0 -14 -6 -11 -14 4 -11 0 -13 -15 -9 -28
7 -36 22 -17 29 9 3 16 13 16 21 0 13 -3 13 -15 3 -9 -7 -17 -11 -20 -8 -2 2
-11 161 -20 354 -8 192 -18 397 -21 457 l-7 107 -1174 0 -1175 0 4 -30z m5061
-331 c-3 -129 -8 -265 -11 -303 l-7 -70 -38 55 c-27 40 -38 67 -40 96 -1 29
-5 39 -14 36 -10 -4 -13 10 -13 53 0 39 -3 55 -10 48 -15 -15 -1 -134 16 -134
8 0 12 -10 10 -27 -2 -16 -4 -34 -5 -41 0 -7 -6 -10 -11 -7 -6 4 -8 10 -5 15
7 11 -5 60 -14 60 -7 0 -120 -84 -191 -141 -79 -63 -74 -73 -66 132 4 101 7
242 7 314 0 71 2 132 4 135 2 3 91 7 198 9 l195 3 -5 -233z m-885 -46 l3 -252
-148 -185 c-81 -102 -152 -185 -157 -185 -5 -1 -7 139 -5 332 l4 332 -22 3
c-17 3 -23 -2 -23 -16 0 -11 4 -22 9 -24 5 -1 11 -149 14 -328 l6 -325 -34
-40 -35 -40 0 53 0 54 -64 -3 c-61 -4 -65 -2 -94 29 -16 17 -35 32 -41 32 -6
0 -11 16 -11 35 0 28 -4 35 -19 35 -24 0 -27 14 -27 105 1 46 -4 75 -13 84 -8
9 -11 27 -7 49 5 34 5 34 -28 28 -29 -6 -33 -4 -32 16 1 13 -5 23 -11 24 -7 1
-15 2 -18 3 -3 0 2 16 12 34 9 17 18 38 19 46 2 8 10 18 18 23 9 5 16 18 16
29 0 24 68 139 83 139 5 0 7 14 3 33 -5 28 -1 39 29 74 31 37 39 41 87 42 29
2 134 6 233 10 99 5 196 8 215 7 l35 -1 3 -252z m-1063 -113 c3 -83 0 -77 35
-83 18 -4 30 -13 30 -22 0 -11 7 -15 23 -13 15 2 25 -4 32 -19 5 -13 15 -23
22 -23 24 0 19 -73 -7 -110 -10 -14 -16 -40 -15 -58 1 -18 -2 -35 -7 -38 -4
-3 -8 -25 -8 -50 0 -50 -14 -57 -33 -17 -12 28 -55 72 -69 73 -18 0 -6 -35 23
-71 30 -38 30 -40 24 -121 -4 -46 -13 -117 -21 -158 -19 -103 -29 -263 -17
-284 7 -13 15 6 32 82 12 54 24 109 26 123 9 53 37 165 47 186 6 11 7 26 4 32
-4 6 0 48 9 95 9 46 15 88 14 92 -1 5 1 16 4 24 3 8 10 31 15 50 5 21 15 36
25 38 10 2 17 0 16 -5 -4 -25 3 -43 17 -43 11 0 15 -6 11 -20 -3 -13 1 -24 14
-30 10 -6 19 -21 19 -33 0 -13 7 -32 15 -43 19 -25 19 -48 0 -64 -21 -17 -19
-39 3 -34 23 6 47 -50 61 -143 13 -83 7 -106 -39 -151 -31 -32 -32 -33 -35
-153 -4 -120 -4 -121 -37 -159 -30 -35 -37 -38 -86 -39 -33 -1 -62 5 -78 15
-23 16 -28 15 -67 -2 -23 -10 -50 -24 -59 -32 -9 -7 -27 -12 -40 -10 -19 2
-23 9 -24 40 -1 20 -8 55 -18 77 -9 23 -16 52 -16 66 0 46 -19 35 -37 -22 -22
-70 -29 -81 -71 -116 -27 -22 -44 -27 -87 -27 -49 0 -55 3 -89 40 -20 22 -36
49 -36 60 0 23 13 26 29 6 10 -12 17 -12 44 2 l32 17 -32 3 c-47 5 -41 16 17
31 28 7 50 17 50 23 0 5 -8 8 -17 6 -10 -1 -24 1 -31 6 -14 8 -62 -18 -62 -34
0 -14 -44 -12 -59 3 -11 10 -12 4 -7 -33 4 -28 4 -41 -2 -35 -10 10 -36 111
-46 180 l-7 40 17 -26 c23 -35 77 -71 98 -63 9 3 16 16 16 27 0 16 3 18 12 9
17 -17 28 -15 28 7 0 24 -22 42 -62 50 -30 6 -32 9 -34 53 -3 65 24 89 103 92
70 4 129 -21 144 -62 6 -15 17 -40 24 -57 8 -16 17 -45 20 -62 4 -18 11 -35
16 -39 6 -3 7 4 4 18 -3 12 -7 40 -9 61 -2 21 -6 40 -10 44 -3 3 -6 17 -6 29
0 45 -117 130 -177 129 -37 0 -44 12 -10 17 39 6 90 -13 144 -53 47 -35 53
-44 63 -96 7 -32 19 -83 27 -113 8 -30 19 -75 24 -100 5 -25 16 -50 24 -56 10
-8 13 -21 9 -41 -5 -27 -3 -31 23 -36 15 -3 36 -9 46 -12 16 -7 17 2 16 96 -1
106 -16 107 -18 2 -1 -56 -13 -67 -32 -32 -9 17 -8 23 2 30 12 7 11 11 -1 19
-8 5 -10 10 -5 10 6 0 11 38 12 98 1 53 6 109 12 124 9 24 15 226 10 333 -1
22 -2 72 -2 112 0 40 -3 70 -7 68 -4 -3 -13 2 -19 9 -8 9 -8 16 -2 20 6 4 8
14 5 24 -5 14 -4 14 4 2 6 -8 9 -17 6 -21 -2 -4 0 -10 6 -14 6 -4 10 6 10 24
0 18 -5 31 -12 32 -10 0 -10 2 0 6 18 7 15 54 -5 69 -17 13 -17 14 0 8 9 -3
17 -1 17 5 0 6 -4 11 -8 11 -4 0 -8 9 -8 20 0 11 4 20 8 20 5 0 8 23 7 50 -1
28 -6 50 -11 50 -4 0 -8 -3 -8 -8 0 -4 -10 -13 -22 -21 -15 -9 -12 -1 11 23
27 28 31 36 18 36 -15 0 -16 2 -5 15 7 8 22 14 32 12 16 -2 19 -12 21 -67z
m-952 46 c3 -7 20 -17 39 -21 22 -5 27 -9 15 -12 -10 -3 -14 -9 -10 -16 4 -8
1 -8 -9 1 -13 10 -17 10 -21 0 -5 -15 0 -269 7 -368 3 -36 10 -193 17 -350 7
-188 16 -300 25 -328 16 -50 18 -114 4 -128 -14 -14 -1 -46 16 -40 7 3 16 1
19 -4 7 -11 45 10 85 46 14 12 34 24 45 26 10 2 22 14 26 28 6 21 7 22 8 5 1
-21 19 -45 33 -45 4 0 6 56 5 125 -2 69 1 119 5 112 4 -6 8 -47 8 -89 0 -42 5
-80 10 -83 6 -3 10 -17 10 -31 0 -18 5 -24 23 -24 17 0 22 -6 24 -27 0 -14 -2
-22 -5 -16 -4 5 -22 13 -39 16 -25 5 -33 3 -33 -8 0 -20 -66 -70 -93 -70 -18
0 -23 -6 -25 -37 -4 -51 -22 -48 -22 3 0 24 -4 38 -10 34 -5 -3 -10 -24 -10
-46 0 -21 -4 -39 -10 -39 -5 0 -10 19 -10 43 -1 30 -3 38 -10 26 -13 -22 -30
-100 -20 -94 11 7 40 -40 40 -65 0 -27 -17 -60 -32 -60 -6 0 -8 11 -4 31 l6
30 -39 -40 c-38 -39 -61 -51 -61 -32 0 6 4 12 10 16 5 3 19 20 31 38 12 18 16
26 9 20 -19 -18 -30 -16 -30 3 0 14 -3 14 -15 4 -9 -7 -14 -19 -11 -26 3 -7 1
-16 -5 -19 -18 -12 -21 25 -5 67 19 51 28 116 17 123 -8 5 -31 -61 -31 -89 0
-29 -33 -14 -42 19 -10 38 -2 65 20 66 9 1 -1 5 -23 9 -46 9 -55 1 -55 -49 0
-28 -12 -46 -78 -112 l-78 -79 -52 53 c-46 46 -53 59 -50 87 l3 32 39 -31 c21
-17 46 -31 54 -31 27 0 142 70 142 87 0 11 -5 13 -17 8 -52 -22 -117 -26 -158
-11 -44 17 -105 70 -105 91 0 6 -8 21 -17 33 -54 62 -52 60 -38 72 11 9 14 6
17 -11 2 -12 9 -24 15 -27 10 -3 11 11 7 55 -5 48 -3 65 15 96 11 21 21 47 21
57 0 12 14 29 33 41 47 30 155 24 193 -11 14 -14 30 -34 35 -45 5 -11 13 -27
18 -35 6 -8 13 -28 16 -44 5 -23 9 -26 15 -16 15 25 25 1 25 -60 0 -48 -4 -62
-20 -74 -18 -14 -14 -15 54 -16 l73 0 -6 123 c-4 67 -9 145 -11 172 -2 28 -9
136 -15 240 -27 494 -30 539 -42 544 -6 2 -5 7 3 13 11 8 11 11 1 15 -9 4 -10
8 -2 18 7 9 8 15 1 19 -6 4 -8 13 -5 20 3 7 -2 16 -10 19 -9 4 -16 12 -16 18
0 8 5 7 17 -2 14 -12 16 -12 11 1 -3 10 -20 15 -51 16 -42 1 -46 -1 -35 -14
12 -14 10 -14 -12 0 -14 9 -42 15 -65 13 -57 -3 -57 -3 -50 -24 3 -11 1 -22
-4 -26 -7 -4 -9 5 -7 24 3 32 -10 43 -20 17 -3 -8 -12 -17 -19 -20 -9 -3 -12
0 -8 10 5 14 -12 20 -20 7 -2 -5 -2 -3 -1 4 2 7 -12 13 -34 16 -27 3 -23 4 15
4 29 0 50 -4 47 -9 -3 -4 -1 -8 5 -8 5 0 11 4 13 10 2 5 58 10 126 11 111 2
122 4 122 21 0 21 25 25 33 4z m-1863 -18 c0 -7 5 -47 10 -88 6 -41 15 -124
20 -185 10 -115 38 -375 46 -434 4 -21 9 -30 13 -23 11 19 80 10 87 -10 3 -10
10 -18 15 -18 6 0 15 -13 20 -30 6 -16 15 -30 19 -30 5 0 15 -3 24 -6 13 -5
16 1 16 25 0 63 19 28 25 -46 3 -43 10 -114 15 -157 15 -122 15 -124 -26 -141
-20 -8 -42 -15 -50 -15 -7 0 -24 -10 -38 -23 -41 -38 -112 -70 -139 -63 -19 4
-26 14 -31 46 -8 53 -3 61 36 49 17 -5 34 -7 36 -4 8 8 -9 25 -26 25 -23 1
-55 26 -48 38 3 6 3 25 -1 43 l-8 34 -5 -45 -5 -44 -19 29 c-24 37 -23 81 3
116 12 16 21 31 21 35 0 3 13 23 29 43 l29 36 -18 175 c-10 96 -28 276 -39
400 -12 124 -23 237 -26 253 -2 15 0 27 5 27 6 0 10 -6 10 -12z m955 0 c2 -7
6 -65 10 -128 7 -148 24 -385 50 -710 3 -36 8 -111 11 -168 6 -92 5 -102 -10
-96 -10 4 -16 18 -16 38 0 17 -5 96 -10 176 -6 80 -17 249 -25 375 -9 127 -17
253 -20 280 -14 161 -16 245 -5 245 6 0 12 -6 15 -12z m2380 -535 c19 -22 36
-53 39 -74 6 -37 24 -53 49 -43 8 3 19 -2 26 -10 10 -12 3 -27 -40 -84 l-52
-69 -29 16 c-32 18 -44 41 -23 41 30 0 16 50 -25 92 -22 23 -40 46 -40 52 0
19 45 116 53 116 5 0 24 -17 42 -37z m-2565 -298 c9 6 5 12 -14 22 -14 7 -26
18 -26 23 0 13 17 13 25 -1 4 -6 19 -7 37 -3 28 6 30 4 25 -15 -4 -18 -2 -19
14 -10 10 5 19 16 19 24 0 8 7 15 15 15 8 0 15 -4 15 -9 0 -5 10 -13 22 -17
20 -6 21 -7 4 -20 -11 -8 -15 -18 -10 -25 7 -12 7 -56 -1 -119 -2 -14 -4 -28
-4 -32 -2 -15 -21 -8 -21 7 0 8 -11 21 -24 30 -15 10 -22 23 -19 38 3 23 -8
41 -41 67 -18 14 -18 13 -12 -8 5 -14 3 -22 -4 -22 -7 0 -14 8 -17 19 -8 30
-95 38 -137 11 -33 -20 -85 -27 -87 -12 -6 29 -5 82 1 82 4 0 13 -7 20 -15 8
-10 30 -15 65 -15 45 0 53 3 66 26 l13 26 32 -37 c21 -25 36 -35 44 -30z m293
-382 c4 -3 1 -13 -5 -21 -10 -11 -9 -16 5 -23 25 -14 21 -29 -8 -29 -25 0 -31
-13 -19 -44 5 -12 10 -14 19 -6 7 6 40 10 72 8 l58 -3 3 -38 c3 -35 6 -38 25
-33 46 14 82 16 96 7 11 -7 10 -17 -8 -55 -26 -52 -32 -58 -50 -47 -8 5 -11
17 -6 30 4 12 2 21 -4 21 -16 0 -13 -40 4 -74 16 -31 20 -56 8 -56 -13 1 -53
69 -66 111 l-12 39 -70 2 c-38 1 -115 3 -170 3 l-100 0 -9 37 c-5 21 -6 41 -3
45 4 3 29 6 55 5 60 -1 84 11 53 27 -19 10 -57 69 -49 76 5 4 119 22 149 24
14 0 29 -2 32 -6z m1518 -50 c-14 -30 -14 -36 -1 -28 24 15 7 -29 -26 -65 -38
-41 -57 -47 -123 -34 -38 8 -39 15 -3 32 15 7 54 43 87 81 46 51 62 64 69 53
5 -8 4 -24 -3 -39z m1296 -26 c33 -19 68 -71 94 -140 25 -68 37 -89 49 -82 12
7 19 -20 13 -44 -3 -12 -11 -21 -19 -21 -30 0 -49 -185 -20 -209 8 -7 14 -34
15 -72 1 -51 -2 -63 -23 -84 -14 -14 -34 -25 -45 -25 -11 0 -26 -3 -35 -6 -11
-4 -16 -1 -16 10 0 9 -8 16 -18 16 -10 0 -31 13 -46 29 l-28 30 33 3 c28 2 36
9 44 33 6 17 14 37 20 45 5 8 10 28 11 43 2 28 0 29 -33 22 -19 -3 -48 -3 -64
0 -29 7 -39 30 -16 38 9 3 9 9 -1 26 -10 17 -10 26 -2 36 7 8 9 19 6 24 -4 5
-2 12 4 16 16 10 12 22 -10 28 -16 4 -19 11 -15 29 3 13 1 36 -5 52 -9 26 -14
28 -55 24 l-45 -3 6 50 c7 63 27 91 84 121 49 26 84 30 117 11z m-3199 -154
l3 -41 -78 -25 c-43 -14 -94 -28 -113 -32 -19 -3 -46 -12 -59 -18 -19 -9 -25
-9 -28 1 -3 6 -20 12 -39 12 -35 0 -42 8 -23 27 8 8 8 13 0 17 -22 14 -10 24
33 30 24 4 50 14 56 21 8 10 32 15 69 15 31 1 79 9 106 19 28 11 55 18 60 17
6 -1 11 -21 13 -43z m1591 -129 c21 -15 22 -20 16 -93 -8 -87 -16 -101 -57
-101 -20 0 -31 6 -38 23 l-9 22 0 -23 c-1 -13 -6 -22 -12 -20 -8 3 -13 39 -14
101 -2 80 0 95 12 86 7 -6 14 -32 14 -58 l2 -46 6 49 c5 30 14 54 26 62 24 18
26 17 54 -2z m1069 -160 c24 -26 31 -40 26 -58 -3 -13 -1 -33 5 -44 9 -17 4
-21 -49 -36 -33 -9 -60 -19 -60 -24 1 -25 22 -36 66 -34 57 2 78 17 43 31 -16
7 -18 10 -7 10 38 2 66 -61 53 -118 -9 -41 -33 -47 -65 -16 -35 34 -42 32 -34
-10 5 -29 3 -35 -11 -35 -15 0 -15 -3 -5 -15 7 -9 19 -14 27 -11 8 3 18 -4 24
-18 9 -19 7 -30 -13 -60 -26 -41 -66 -54 -112 -36 -34 12 -26 25 22 37 43 11
41 27 -4 33 -49 7 -56 36 -11 49 l32 8 -29 8 -29 8 24 13 c13 7 32 13 42 14
30 0 18 20 -12 20 -17 0 -33 5 -37 12 -11 17 -5 90 8 106 8 9 5 12 -11 12 -31
0 -81 28 -81 45 0 8 4 15 9 15 6 0 7 15 4 33 -6 39 27 87 60 87 12 0 29 5 37
10 22 14 51 2 88 -36z m1036 -89 c20 -14 41 -25 45 -25 16 0 73 -59 66 -70 -3
-5 -25 -10 -48 -10 -40 1 -41 1 -22 16 19 15 17 15 -25 9 -61 -10 -98 -30
-102 -57 -5 -35 -34 -35 -41 1 -5 22 -13 31 -35 36 -28 6 -29 9 -28 53 1 44 3
47 34 53 18 4 36 9 39 13 16 15 82 4 117 -19z m128 -147 c2 -16 9 -22 21 -20
14 2 17 -3 13 -33 -3 -20 -10 -43 -16 -50 -7 -8 -14 -43 -17 -77 -6 -87 -20
-118 -49 -118 -30 0 -31 19 -3 54 35 45 11 43 -35 -3 -44 -43 -44 -44 -100
-37 -64 8 -77 32 -25 43 18 3 34 14 36 24 7 25 56 43 81 30 17 -9 20 -7 26 21
7 36 3 41 -41 56 -41 14 -56 -3 -24 -28 18 -13 20 -18 9 -27 -15 -13 -94 -20
-104 -10 -4 4 0 7 8 7 9 0 21 7 28 15 11 13 8 15 -13 15 -31 0 -34 4 -38 55
-3 33 -1 40 16 43 11 2 24 11 28 18 7 12 14 9 41 -11 40 -30 48 -31 72 -4 19
22 19 22 -5 14 -17 -5 -22 -4 -19 6 3 8 19 14 36 14 17 0 37 6 43 13 19 18 27
15 31 -10z m-3152 -80 c8 -26 18 -50 23 -54 24 -25 -28 -59 -68 -44 -11 4 -31
6 -45 4 -29 -5 -61 12 -45 24 6 4 10 27 10 52 0 50 17 65 76 65 32 0 35 -3 49
-47z m1084 -74 c25 -14 46 -29 46 -33 0 -4 14 -29 31 -55 17 -25 37 -70 44
-99 11 -48 12 -50 20 -24 4 15 11 27 15 27 4 0 3 21 -1 47 -9 49 -7 59 10 48
6 -3 11 -37 11 -76 0 -61 -3 -73 -24 -92 -23 -22 -29 -42 -45 -167 -8 -62 -52
-194 -86 -261 -10 -18 -33 -38 -58 -50 -54 -24 -70 -24 -92 1 -16 18 -17 23
-4 46 20 39 69 76 88 68 9 -4 27 -7 40 -8 20 -1 26 5 32 32 5 26 3 35 -11 42
-12 7 -16 17 -13 31 5 19 3 21 -19 16 -50 -13 -119 25 -117 62 0 11 2 12 6 4
5 -15 69 -18 77 -4 3 5 -7 11 -22 14 -19 4 -28 12 -29 26 -1 12 4 21 11 21 8
0 16 9 19 21 4 15 -1 22 -19 30 -14 5 -30 9 -35 9 -5 0 -9 5 -9 11 0 6 -12 1
-26 -10 -15 -12 -39 -20 -54 -19 -25 2 -29 7 -34 50 -4 27 -5 52 -2 56 2 4 22
7 43 6 21 -1 41 2 44 8 4 7 14 6 28 -1 19 -10 21 -9 21 12 0 36 -21 57 -68 65
l-44 7 41 51 c23 29 41 55 41 60 0 4 10 18 22 31 28 30 64 29 122 -3z m-330
-51 c-9 -59 -16 -145 -16 -198 1 -24 -7 -50 -17 -64 l-18 -24 0 49 c1 47 -15
185 -29 252 l-6 32 47 0 47 0 -8 -47z m-554 12 c0 -13 -5 -25 -11 -27 -6 -2
-14 -36 -19 -76 -6 -53 -13 -77 -26 -87 -17 -12 -19 -11 -22 4 -4 22 -59 77
-69 68 -3 -4 1 -15 10 -25 36 -39 14 -62 -60 -62 -18 0 -33 5 -33 10 0 6 6 10
13 10 6 0 23 9 37 20 l25 20 -32 0 c-17 0 -44 5 -59 10 -22 9 -29 7 -41 -10
-25 -35 -85 -16 -103 33 -14 41 -14 40 26 34 40 -7 110 19 134 48 11 14 16 14
35 1 22 -14 45 -19 80 -17 14 1 16 4 7 9 -7 5 -10 16 -6 26 5 13 9 14 21 5 11
-10 18 -8 34 7 28 29 59 28 59 -1z m3340 -481 c13 -33 13 -130 -1 -191 -8 -40
-7 -56 9 -98 14 -38 23 -49 37 -47 10 2 22 -2 26 -10 6 -9 9 -7 9 9 0 15 15
32 44 53 25 16 47 30 50 30 3 0 8 -15 12 -34 3 -19 12 -37 19 -40 12 -4 10
-23 -11 -103 -2 -7 -21 -11 -51 -11 -37 1 -61 -6 -96 -27 -27 -15 -50 -25 -53
-22 -8 8 -21 240 -20 345 1 50 -3 92 -7 92 -5 0 -7 7 -3 15 3 8 1 15 -4 15 -6
0 -10 -6 -10 -14 0 -7 -6 -18 -13 -25 -20 -16 -37 6 -37 45 0 29 3 33 33 37
17 2 38 5 45 5 7 1 17 -10 22 -24z m-2995 -48 c-14 -25 -32 -82 -43 -137 l-17
-94 -58 -2 c-44 -2 -59 1 -64 12 -7 20 15 72 48 109 25 30 29 43 30 96 1 43
15 56 60 59 24 1 45 4 48 6 2 3 8 2 12 -1 5 -3 -2 -24 -16 -48z m-1755 -63
c19 -2 45 -6 56 -8 28 -6 71 -63 79 -106 6 -32 4 -35 -26 -44 -51 -15 -50 -37
0 -29 28 4 41 3 41 -5 0 -6 -18 -11 -45 -11 -32 0 -45 -4 -45 -14 0 -15 37
-29 45 -16 11 17 55 -17 70 -53 23 -58 2 -172 -46 -238 -40 -56 -152 -47 -271
23 -61 36 -104 100 -87 130 6 11 4 20 -6 28 -17 14 -21 115 -5 125 13 8 13 45
-2 99 -10 39 -10 48 5 64 18 19 104 52 138 52 10 0 21 5 24 11 4 6 14 7 24 3
9 -4 32 -9 51 -11z m5160 -172 c0 -15 32 -22 46 -11 37 32 154 -37 154 -91 0
-16 4 -29 9 -29 5 0 12 -29 16 -65 7 -65 6 -66 -44 -156 -28 -51 -51 -94 -51
-96 0 -2 7 -11 15 -19 30 -30 30 -63 0 -94 -32 -33 -80 -36 -110 -7 -17 18
-16 20 21 58 45 46 28 51 -33 10 -59 -40 -100 -46 -159 -23 -87 35 -83 78 6
66 l45 -7 -19 22 c-11 11 -16 21 -12 21 3 0 -2 12 -11 27 -18 26 -17 27 2 19
11 -4 34 -13 50 -18 17 -6 42 -24 58 -41 24 -26 30 -29 51 -19 16 7 27 7 34 0
16 -16 37 29 22 47 -27 32 -79 85 -84 85 -3 0 -6 -16 -6 -35 0 -31 -3 -35 -25
-35 -26 0 -34 15 -12 23 12 5 6 8 -39 22 -13 4 -15 13 -10 47 l7 41 -45 -6
c-38 -6 -47 -3 -59 13 -17 25 -10 70 10 70 8 0 35 -14 60 -31 50 -33 67 -32
84 5 17 36 7 51 -57 92 -51 33 -55 38 -38 47 10 6 24 12 29 13 6 0 16 2 22 2
7 1 19 16 28 32 14 28 45 42 45 21z m-761 -348 c13 -54 27 -113 31 -130 5 -18
5 -33 0 -33 -5 0 -15 -3 -24 -6 -11 -4 -19 2 -25 19 -12 31 -48 26 -53 -7 -4
-28 -48 -36 -48 -8 0 31 21 236 25 250 2 6 19 12 38 12 l33 0 23 -97z m-163
62 c14 -14 24 -33 22 -43 -4 -22 -48 -29 -48 -8 0 9 -7 16 -15 16 -28 0 -15
-36 25 -72 72 -65 63 -140 -17 -146 -36 -3 -44 1 -59 22 -9 14 -14 33 -10 41
7 20 36 19 52 -2 10 -15 15 -16 26 -5 11 11 5 21 -34 55 -25 23 -49 52 -52 64
-11 37 4 74 38 89 42 18 43 18 72 -11z m-142 -21 c21 -20 20 -53 0 -61 -11 -4
-23 2 -33 16 -17 22 -31 19 -31 -5 0 -7 20 -32 45 -55 36 -34 45 -49 45 -76 0
-39 -29 -73 -64 -73 -49 0 -97 72 -57 85 25 8 41 -1 41 -21 0 -8 7 -14 15 -14
28 0 15 34 -30 76 -51 47 -60 89 -25 124 24 24 72 26 94 4z m-139 -19 c0 -14
-9 -21 -30 -25 -16 -3 -30 -11 -29 -18 1 -6 2 -18 3 -26 0 -8 13 -16 29 -18
19 -2 27 -9 27 -23 0 -14 -8 -21 -27 -23 -23 -3 -28 -8 -28 -32 0 -26 4 -29
38 -32 29 -2 37 -7 37 -23 0 -17 -8 -20 -57 -23 -68 -4 -65 -9 -70 143 l-3
110 40 6 c58 9 70 6 70 -16z m-4169 -12 c3 -10 10 -26 15 -35 5 -10 9 -27 9
-37 0 -11 15 -31 33 -45 19 -14 47 -50 62 -78 16 -29 34 -57 42 -61 20 -12 16
-39 -11 -72 l-24 -30 -32 30 c-52 48 -169 197 -180 228 -8 25 -7 28 6 23 12
-4 14 -1 9 14 -8 24 2 26 27 4 16 -16 18 -16 24 0 3 9 4 30 2 46 -5 32 9 42
18 13z m3982 -10 c3 -20 -1 -23 -32 -23 -33 0 -36 -2 -36 -29 0 -25 4 -30 28
-33 35 -4 38 -39 4 -48 -13 -3 -23 -8 -23 -12 1 -5 1 -17 1 -28 0 -16 7 -20
35 -20 28 0 35 -4 35 -19 0 -23 -19 -31 -74 -31 l-43 0 -7 77 c-3 42 -6 100
-6 129 0 52 0 53 33 57 62 8 82 3 85 -20z m-128 -14 c0 -6 -10 -13 -21 -16
-21 -6 -21 -10 -17 -114 4 -107 4 -109 -17 -109 -19 0 -23 7 -29 53 -3 28 -6
70 -6 92 0 45 -7 58 -33 68 -11 4 -17 14 -15 24 6 33 138 34 138 2z m-156 -11
c21 -29 20 -44 -1 -52 -11 -5 -23 0 -33 14 -9 11 -19 18 -23 14 -16 -17 -5
-43 32 -72 43 -35 59 -78 41 -112 -13 -25 -55 -43 -81 -35 -22 7 -53 61 -44
75 11 18 43 10 48 -11 6 -21 28 -22 34 -2 2 6 -16 31 -41 56 -51 49 -61 94
-29 129 23 26 78 24 97 -4z m-131 -3 c8 -20 -10 -31 -54 -34 -16 -1 -20 -7
-17 -28 2 -23 8 -29 36 -31 24 -2 32 -8 32 -23 0 -14 -7 -19 -30 -19 -28 0
-30 -3 -30 -36 0 -35 1 -36 38 -32 31 3 37 0 40 -18 3 -19 -3 -22 -53 -29 -31
-3 -59 -4 -62 -1 -9 8 -25 236 -19 252 8 20 112 19 119 -1z m-213 -91 l17 -79
7 45 c3 25 7 63 8 85 3 34 7 41 27 43 24 4 24 3 17 -53 -3 -32 -9 -91 -13
-131 l-6 -74 -33 0 c-38 0 -40 6 -70 158 -15 71 -15 85 -3 93 21 13 29 -2 49
-87z m-136 64 c3 -13 8 -71 11 -130 6 -105 6 -108 -14 -108 -16 0 -21 6 -21
28 0 15 -4 38 -8 52 -6 20 -8 14 -12 -30 -4 -46 -8 -55 -24 -55 -16 0 -24 13
-38 65 l-18 65 5 -67 c5 -63 4 -68 -14 -68 -22 0 -28 35 -33 180 l-3 75 29 0
c29 0 31 -3 44 -67 14 -64 29 -90 29 -50 -1 92 4 121 21 125 34 9 42 7 46 -15z
m-189 -18 c0 -10 -12 -16 -32 -18 -29 -3 -33 -7 -33 -32 0 -24 5 -29 28 -32
37 -4 39 -42 1 -46 -22 -3 -25 -7 -21 -32 4 -27 8 -30 38 -30 27 0 34 -4 34
-19 0 -13 -10 -20 -31 -25 -65 -13 -78 -9 -83 27 -11 66 -17 206 -11 217 11
17 110 8 110 -10z m-297 -7 c17 -15 22 -38 30 -133 6 -63 10 -116 9 -117 -1
-1 -27 2 -57 5 -70 9 -80 27 -80 144 0 79 2 88 22 102 29 21 51 20 76 -1z m87
-77 c8 -98 15 -123 34 -111 8 5 10 35 5 106 -7 95 -6 99 14 99 18 0 21 -8 27
-72 11 -119 5 -161 -27 -176 -31 -15 -72 -3 -82 25 -4 10 -10 64 -13 121 -6
98 -5 102 15 102 18 0 21 -8 27 -94z m1746 -107 c9 -18 159 -590 159 -606 0
-7 -8 -13 -19 -13 -10 0 -32 -3 -49 -6 -29 -6 -30 -5 -46 50 l-17 56 -52 0
c-29 0 -57 -4 -64 -8 -6 -4 -13 -32 -15 -62 l-3 -55 -47 -3 c-41 -3 -48 0 -48
15 0 10 4 81 10 158 5 77 12 192 15 255 4 63 9 138 13 165 l7 50 65 11 c75 13
81 13 91 -7z m-331 -49 c30 -21 64 -95 58 -126 -2 -15 -14 -20 -55 -22 -52 -3
-52 -3 -55 29 -4 41 -28 57 -62 41 -53 -24 -24 -113 54 -167 126 -87 177 -201
136 -300 -22 -51 -68 -75 -145 -75 -60 0 -66 2 -97 35 -23 25 -36 51 -44 91
-7 30 -10 57 -8 59 2 2 24 5 48 7 44 3 44 2 50 -32 8 -49 17 -60 49 -60 36 0
51 17 51 59 0 32 -10 45 -94 126 -52 50 -102 106 -112 125 -24 50 -22 129 5
174 13 20 23 36 24 36 1 0 20 7 42 15 50 19 117 12 155 -15z m-306 -32 c3 -18
10 -100 16 -183 6 -82 16 -208 23 -278 12 -119 12 -129 -4 -138 -25 -13 -79
-11 -84 4 -6 15 -55 538 -55 583 0 34 9 39 72 43 23 1 28 -4 32 -31z m-174 2
c0 -5 4 -53 10 -107 25 -254 42 -484 37 -498 -4 -10 -20 -15 -46 -15 -48 0
-46 -7 -62 213 -7 92 -16 164 -20 160 -4 -5 -12 -89 -18 -187 -7 -99 -14 -183
-17 -188 -3 -4 -23 -8 -45 -8 -48 0 -44 -8 -100 220 -23 94 -43 169 -46 167
-2 -3 3 -86 13 -186 9 -99 14 -187 10 -196 -4 -12 -16 -15 -43 -13 l-38 3 -11
135 c-7 74 -18 200 -25 280 -7 80 -13 159 -13 175 l-1 30 69 0 69 0 49 -189
c26 -104 50 -191 52 -193 6 -6 15 96 22 252 4 87 11 143 18 147 17 11 136 10
136 -2z m-550 -45 c13 -35 143 -586 138 -590 -3 -3 -64 -8 -85 -6 -6 1 -17 26
-23 56 -12 60 -15 61 -92 49 l-38 -7 0 -53 0 -54 -45 0 c-36 0 -45 3 -45 18 0
23 29 428 38 522 l7 75 45 6 c85 11 90 10 100 -16z m-326 -12 c39 -23 64 -73
68 -138 l3 -50 -47 -3 -48 -3 0 33 c0 54 -10 76 -37 83 -52 13 -56 -4 -48
-180 10 -242 18 -266 78 -251 26 6 27 9 27 76 l0 70 45 0 45 0 2 -47 c5 -125
-10 -163 -76 -188 -76 -29 -156 -5 -187 57 -20 39 -39 216 -42 399 -2 90 14
121 76 149 48 22 94 19 141 -7z m-1329 -38 c137 -36 244 -124 305 -250 47 -96
53 -145 16 -145 -18 0 -25 7 -29 28 -4 21 -19 35 -55 55 -27 15 -55 27 -61 27
-7 0 -34 -15 -62 -32 -36 -24 -49 -39 -49 -57 l0 -24 -122 6 c-158 9 -178 13
-178 42 0 16 -16 33 -57 60 l-57 38 -56 -29 c-44 -23 -56 -35 -58 -56 -3 -23
-8 -28 -32 -28 -16 0 -31 4 -35 9 -8 14 42 165 66 195 11 14 49 46 83 71 136
96 250 124 381 90z m-1400 -92 c9 -32 20 -69 25 -83 22 -61 31 -116 25 -147
-7 -37 -25 -45 -25 -11 0 21 0 21 -21 2 -17 -15 -23 -16 -40 -6 -18 11 -19 9
-19 -37 0 -56 -22 -91 -70 -111 -23 -10 -34 -10 -42 -2 -17 17 -13 129 7 202
10 36 20 80 22 98 6 34 13 38 44 22 14 -8 19 -21 19 -55 0 -24 5 -47 11 -51 9
-5 10 20 5 95 -7 90 -6 105 10 122 9 10 21 19 25 19 5 0 16 -26 24 -57z m507
-393 c21 -6 42 -19 48 -30 15 -28 12 -72 -6 -98 -12 -18 -13 -26 -4 -37 18
-22 7 -115 -16 -132 -21 -15 -140 -18 -149 -4 -5 9 21 270 30 299 5 15 47 16
97 2z m206 -26 c23 -4 32 -10 32 -24 0 -17 -7 -20 -45 -20 -39 0 -45 -3 -51
-25 -9 -36 1 -53 33 -57 20 -2 29 -9 31 -25 3 -20 -1 -23 -32 -23 -32 0 -36
-3 -42 -35 -8 -43 -5 -46 43 -54 30 -5 39 -11 41 -30 4 -23 3 -23 -65 -16 -37
4 -71 10 -74 13 -8 8 15 284 24 299 6 9 31 9 105 -3z m141 -53 c5 -20 12 -51
16 -69 9 -44 14 -37 23 34 6 52 10 59 31 62 l23 4 -7 -149 c-4 -81 -9 -151
-12 -155 -2 -5 -15 -8 -29 -8 -29 0 -37 16 -54 118 -14 84 -30 95 -30 20 0
-29 -3 -70 -6 -90 -6 -32 -11 -38 -30 -38 -20 0 -24 5 -24 32 0 38 20 259 25
274 2 6 17 9 34 6 26 -3 32 -10 40 -41z m214 12 c7 -15 -13 -254 -23 -273 -10
-19 -71 -37 -88 -26 -17 10 -1 47 24 57 23 8 24 13 24 98 0 123 7 151 36 151
12 0 25 -3 27 -7z m164 -78 c6 -44 15 -117 19 -162 l7 -83 -26 0 c-20 0 -27 6
-32 30 -5 25 -11 30 -36 30 -22 0 -30 -6 -35 -25 -4 -18 -13 -25 -30 -25 -30
0 -30 4 1 134 14 58 25 112 25 120 0 8 4 27 10 41 9 23 15 26 47 23 l38 -3 12
-80z m3363 60 c0 -22 -4 -25 -40 -25 -36 0 -40 -3 -40 -24 0 -44 10 -56 46
-56 29 0 34 -3 34 -24 0 -19 -6 -25 -27 -28 -25 -3 -28 -7 -28 -43 l0 -40 45
-5 c36 -4 46 -9 48 -26 3 -19 -3 -22 -60 -27 -35 -3 -67 -2 -71 2 -8 8 -46
248 -47 293 0 18 22 24 98 27 39 1 42 -1 42 -24z m-3227 -7 c3 -13 9 -50 13
-83 3 -33 9 -64 13 -70 3 -5 13 28 21 75 l16 85 37 3 38 3 -3 -158 -3 -158
-25 0 c-25 0 -25 0 -22 88 1 48 0 87 -2 87 -2 0 -9 -33 -16 -72 -16 -103 -18
-108 -45 -108 -26 0 -28 6 -42 115 l-8 60 -5 -80 c-5 -74 -7 -80 -27 -83 l-23
-3 0 160 0 161 39 0 c32 0 40 -4 44 -22z m757 12 c19 -10 43 -67 34 -81 -10
-17 -46 -9 -51 11 -3 11 -14 20 -24 20 -34 0 -21 -40 31 -97 44 -48 50 -60 50
-99 0 -57 -25 -84 -79 -84 -47 0 -71 26 -71 77 0 29 3 33 25 33 18 0 25 -5 25
-20 0 -25 29 -38 40 -19 11 17 -5 46 -51 91 -43 42 -56 86 -38 130 17 42 68
60 109 38z m-532 -157 l-3 -158 -27 -3 -28 -3 0 154 c0 84 3 157 7 160 3 4 17
7 30 7 l24 0 -3 -157z m117 105 c8 -28 15 -60 15 -69 0 -10 5 -21 10 -24 6 -4
10 22 10 69 0 75 0 76 25 76 l25 0 -2 -162 c-3 -161 -3 -163 -26 -166 -26 -4
-42 26 -63 121 -7 32 -16 60 -21 63 -4 3 -8 -36 -8 -85 0 -90 0 -91 -25 -91
l-25 0 0 153 c0 85 3 157 7 160 3 4 19 7 34 7 25 0 30 -5 44 -52z m244 0 c26
-132 48 -268 43 -273 -3 -3 -15 -5 -28 -5 -17 0 -24 7 -29 30 -5 25 -12 30
-35 30 -23 0 -29 -5 -33 -30 -5 -21 -12 -30 -26 -30 -29 0 -32 11 -21 76 10
62 25 154 35 217 6 35 8 37 45 37 l39 0 10 -52z m2455 33 c28 -30 58 -238 38
-267 -21 -32 -142 -50 -142 -21 0 6 -9 74 -20 150 -11 76 -18 143 -14 148 3 5
31 9 63 9 44 0 62 -5 75 -19z m-275 -33 c5 -18 24 -80 41 -138 17 -58 33 -113
36 -122 4 -14 0 -18 -21 -18 -18 0 -28 7 -35 26 -8 20 -16 25 -38 22 -21 -2
-28 -9 -30 -31 -3 -23 -8 -28 -25 -25 -24 3 -23 -9 -19 208 l2 110 39 0 c36 0
40 -3 50 -32z m-170 3 c23 -23 36 -93 22 -119 -7 -14 -6 -24 4 -39 18 -25 35
-132 23 -139 -4 -3 -17 -3 -27 1 -14 4 -20 19 -26 59 -4 35 -12 56 -22 60 -22
9 -34 -2 -29 -27 19 -90 18 -97 -8 -97 -15 0 -27 7 -30 18 -10 32 -36 284 -30
293 11 18 103 10 123 -10z m-199 6 c0 -1 18 -65 40 -142 46 -162 48 -175 19
-175 -13 0 -23 10 -30 30 -12 32 -13 33 -46 24 -16 -4 -23 -14 -23 -30 0 -24
-24 -43 -38 -30 -7 8 -4 281 4 309 4 12 16 17 40 17 19 0 34 -1 34 -3z m-144
-30 c23 -20 28 -34 32 -83 4 -65 -10 -89 -58 -96 -23 -3 -24 -7 -21 -48 1 -25
4 -49 4 -55 1 -5 -9 -10 -23 -10 -24 0 -25 3 -42 125 -23 172 -23 178 5 183
52 10 77 6 103 -16z m-252 -39 c9 -29 27 -93 41 -142 32 -112 32 -126 1 -126
-17 0 -26 7 -30 25 -5 20 -13 25 -36 25 -25 0 -30 -4 -30 -25 0 -26 -25 -44
-39 -29 -9 9 3 296 12 311 3 5 19 10 36 11 29 2 31 -1 45 -50z m-179 36 c19
-8 45 -55 45 -84 0 -14 -6 -20 -24 -20 -18 0 -25 7 -30 31 -4 22 -11 30 -23
27 -16 -3 -18 -13 -15 -74 5 -99 15 -138 34 -142 13 -2 17 6 20 35 2 30 7 38
23 38 17 0 20 -8 23 -46 4 -56 -15 -79 -62 -79 -64 0 -77 27 -91 196 -7 75 -6
83 14 103 21 21 54 27 86 15z m-319 -15 c3 -6 11 -67 16 -136 13 -154 6 -173
-57 -173 -63 0 -75 20 -86 137 -14 161 -13 173 15 173 20 0 24 -6 30 -46 3
-26 6 -70 6 -99 0 -82 9 -115 32 -115 19 0 20 5 13 118 -8 133 -8 123 -6 140
1 15 27 16 37 1z m113 -46 c37 -101 39 -102 34 -20 -6 74 -5 77 16 77 11 0 21
-6 21 -12 0 -7 7 -76 15 -153 10 -107 11 -141 2 -147 -27 -18 -42 0 -71 90
-17 50 -34 92 -39 92 -4 0 -6 -8 -3 -17 2 -10 7 -53 11 -96 7 -78 7 -79 -17
-75 -25 3 -28 19 -43 221 l-7 97 30 0 c28 0 32 -5 51 -57z m-371 35 c5 -7 19
-42 31 -78 l20 -65 -2 75 c-2 70 0 75 19 78 25 4 29 -16 40 -194 7 -117 2
-131 -35 -119 -13 4 -25 29 -41 83 -12 42 -26 81 -30 85 -4 5 -5 -33 -2 -83
l5 -92 -24 4 c-22 3 -24 9 -30 78 -4 41 -7 112 -8 158 -1 80 0 82 23 82 13 0
28 -6 34 -12z m1942 -326 c45 -22 73 -66 94 -146 21 -86 21 -172 -2 -215 l-17
-35 32 -35 c38 -40 57 -93 78 -214 9 -49 22 -102 31 -119 13 -25 14 -32 2 -39
-23 -15 -124 -11 -138 6 -7 8 -21 65 -31 127 -22 129 -34 165 -60 178 -16 9
-99 14 -99 7 0 -15 43 -233 54 -274 8 -28 11 -54 8 -57 -3 -3 -33 -6 -67 -6
l-62 0 -21 58 c-11 31 -25 93 -31 137 -7 44 -18 114 -26 155 -29 156 -71 468
-63 475 9 9 199 23 243 18 22 -3 56 -12 75 -21z m-502 -47 c7 -22 38 -114 68
-205 30 -91 64 -195 75 -231 11 -36 31 -95 45 -130 42 -106 76 -201 72 -203
-2 -2 -31 -6 -66 -9 l-62 -7 -31 70 c-35 77 -31 75 -127 63 l-53 -6 7 -69 7
-69 -64 3 -64 3 -6 100 c-8 127 -8 455 0 605 l6 115 60 6 c110 11 118 9 133
-36z m-304 16 c3 -4 8 -34 12 -65 l7 -56 -62 0 c-60 0 -61 0 -61 -27 0 -40 67
-462 94 -593 8 -36 12 -68 9 -72 -2 -5 -31 -8 -64 -8 -52 0 -61 3 -69 23 -11
25 -65 305 -75 387 -4 30 -9 62 -10 70 -1 8 -6 47 -9 85 -13 131 -9 125 -81
125 -70 0 -75 5 -75 83 0 36 1 37 38 38 20 1 84 5 142 9 161 10 198 11 204 1z
m-430 -33 c3 -13 7 -48 11 -78 8 -84 54 -418 65 -479 23 -128 3 -197 -66 -226
-55 -23 -140 -19 -201 9 -82 39 -97 74 -127 296 -26 194 -46 389 -46 453 l0
37 59 0 60 0 6 -57 c3 -32 12 -107 20 -168 8 -60 22 -168 31 -240 25 -206 36
-231 101 -223 46 5 49 24 25 180 -26 166 -62 499 -55 511 2 4 29 7 58 7 49 0
55 -2 59 -22z m-610 -50 c4 -29 18 -170 31 -313 14 -143 27 -270 30 -282 5
-22 10 -23 105 -23 54 0 101 -4 104 -8 3 -5 8 -32 12 -60 l7 -52 -176 0 -176
0 -5 32 c-2 18 -10 89 -16 158 -6 69 -15 175 -21 235 -14 154 -25 342 -21 355
2 5 30 10 62 10 l59 0 5 -52z m-1794 -2 c24 -1 25 -3 22 -68 -5 -84 14 -92 23
-10 4 31 8 62 10 68 4 13 105 8 118 -5 6 -6 17 -5 28 2 24 15 53 -1 57 -32 4
-23 -23 -31 -31 -8 -2 6 -8 9 -12 4 -5 -4 1 -17 13 -30 11 -12 25 -33 30 -47
8 -22 11 -18 23 40 12 54 18 66 36 68 26 4 30 -7 39 -105 5 -53 3 -73 -5 -73
-6 0 -14 7 -17 15 -8 20 -23 19 -46 -2 -18 -16 -24 -8 -18 22 1 5 -7 2 -18 -8
-34 -31 -82 -16 -82 25 0 21 36 25 43 6 2 -7 7 -10 11 -7 4 4 -4 19 -18 34
-15 16 -26 39 -26 51 0 14 -6 24 -14 24 -10 0 -16 -20 -21 -70 -6 -64 -18 -91
-31 -77 -3 3 -6 36 -7 73 -3 88 -23 98 -29 14 -4 -62 -15 -80 -50 -80 -35 0
-48 27 -41 91 6 59 6 59 -21 59 -19 0 -26 -5 -26 -20 0 -11 7 -20 15 -20 22 0
18 -27 -5 -33 -15 -4 -20 -14 -20 -36 0 -21 -5 -31 -15 -31 -12 0 -15 15 -15
78 0 87 10 107 50 96 14 -3 36 -7 50 -8z m628 -110 c-3 -57 -1 -61 20 -64 21
-3 22 0 22 67 0 69 13 97 32 70 5 -8 7 -36 4 -62 -6 -51 1 -80 15 -71 5 3 9
34 9 70 0 50 3 64 15 64 8 0 15 -6 16 -12 0 -10 2 -10 6 0 7 17 68 15 83 -2 6
-8 11 -28 9 -43 -1 -15 1 -40 5 -55 12 -43 -8 -68 -54 -68 l-40 0 -2 73 -2 72
-3 -60 c-2 -32 -9 -65 -15 -72 -12 -15 -54 -17 -62 -4 -3 5 -26 6 -51 3 l-45
-5 0 85 c0 90 5 105 27 86 11 -8 14 -29 11 -72z m3702 -138 c0 -39 -40 -182
-53 -193 -6 -5 -13 -27 -13 -49 -1 -21 -6 -41 -11 -45 -5 -3 -14 -22 -19 -41
-18 -64 -61 -43 -68 34 -2 18 -7 39 -11 46 -5 9 -4 15 3 18 7 2 12 14 12 28 0
17 4 22 16 17 12 -4 14 0 8 22 -6 25 -5 27 17 20 24 -8 24 -7 5 13 -18 21 -18
22 4 30 19 7 20 11 9 17 -11 7 -8 11 11 16 l25 7 -22 7 c-13 4 -23 11 -23 15
0 18 64 58 98 59 6 1 12 -9 12 -21z m-3935 -58 c9 -30 34 -50 60 -50 37 0 41
-21 11 -47 -25 -21 -27 -28 -21 -63 8 -45 3 -48 -42 -20 -30 18 -35 18 -67 5
-48 -20 -48 -20 -41 28 6 37 3 45 -19 66 -32 30 -25 41 23 41 33 0 40 4 51 30
14 34 36 39 45 10z"/>
<path d="M1977 2327 l-57 -32 0 -52 c0 -51 2 -54 42 -83 58 -43 79 -46 132
-19 26 12 46 25 47 28 1 3 2 32 3 64 3 58 2 59 -33 81 -75 47 -72 47 -134 13z"/>
<path d="M2230 2320 l-45 -29 3 -63 4 -64 56 -31 57 -31 51 29 52 30 1 57 c1
67 -1 71 -56 106 -53 32 -67 32 -123 -4z"/>
<path d="M5241 1293 c1 -60 35 -217 47 -221 7 -2 29 -1 48 3 47 8 55 34 41
128 -15 96 -32 117 -92 117 -43 0 -45 -1 -44 -27z"/>
<path d="M4821 1038 l0 -188 55 0 c62 0 64 3 35 82 -11 29 -32 96 -46 148 -15
52 -31 106 -35 120 -5 14 -8 -54 -9 -162z"/>
<path d="M5677 6613 c-11 -11 -8 -41 5 -45 8 -3 7 -11 -5 -28 -21 -31 -22 -54
-1 -71 9 -7 20 -24 25 -37 5 -14 12 -22 16 -19 12 13 61 -23 74 -55 17 -43 63
-93 78 -84 18 11 13 41 -14 77 -47 65 -77 118 -71 127 3 5 19 12 36 15 17 4
30 13 30 21 0 18 61 66 83 66 20 0 22 11 5 28 -17 17 -195 16 -201 0 -4 -10
-6 -10 -6 0 -1 13 -43 17 -54 5z"/>
<path d="M6113 6601 c-13 -11 -31 -17 -43 -14 -24 6 -25 1 -5 -37 9 -17 11
-30 5 -30 -5 0 -10 -13 -10 -28 0 -17 -10 -37 -23 -50 -27 -26 -37 -28 -37 -7
0 17 -4 18 -28 6 -9 -5 -37 -15 -62 -21 -25 -7 -38 -15 -30 -18 24 -8 52 -35
62 -62 l9 -24 12 24 c7 14 20 25 29 25 10 0 24 9 31 19 10 14 16 16 22 7 4 -7
2 -18 -4 -24 -15 -15 -14 -38 4 -51 12 -9 13 -18 6 -43 -6 -20 -6 -35 0 -38 5
-4 9 -15 9 -26 0 -11 7 -22 16 -26 9 -3 20 -15 24 -27 8 -19 9 -19 9 6 1 14 7
28 14 31 6 2 9 7 5 11 -3 4 -16 3 -27 -4 -18 -9 -22 -7 -31 15 -13 34 -13 36
7 64 13 20 18 21 27 10 17 -22 44 -22 73 0 14 12 32 21 39 21 8 0 14 5 14 10
0 21 20 9 21 -12 1 -21 2 -21 6 -3 3 11 12 29 22 39 15 18 15 19 -1 13 -22 -8
-24 12 -2 27 12 9 13 17 5 40 -16 40 -3 51 22 19 38 -49 55 -63 60 -50 3 9 9
9 25 0 16 -10 21 -10 25 0 2 7 9 3 16 -11 15 -29 31 -28 31 2 0 17 7 26 25 30
14 4 30 4 35 1 6 -4 10 -3 11 2 6 72 3 90 -13 85 -9 -2 -20 -20 -25 -40 l-9
-37 -25 42 c-29 51 -37 54 -31 12 4 -29 3 -30 -16 -20 -11 6 -23 16 -25 23 -3
7 -6 4 -6 -8 -1 -11 -7 -21 -15 -21 -8 0 -12 6 -8 15 3 10 1 13 -6 8 -18 -11
-92 5 -92 21 0 7 -7 25 -17 39 -15 23 -15 26 0 42 16 15 17 15 17 0 0 -9 12
-26 28 -38 l27 -22 5 28 c3 15 10 29 16 31 15 5 24 -40 12 -61 -7 -12 -5 -16
8 -16 10 0 14 5 11 15 -5 11 0 13 26 9 l32 -6 -28 23 -27 24 25 12 c14 6 25 7
25 2 0 -5 7 -9 15 -9 19 0 19 7 0 26 -8 9 -19 13 -24 10 -5 -4 -11 -1 -13 6
-4 10 -10 10 -32 0 -15 -7 -24 -8 -21 -2 8 13 -115 13 -149 0 -17 -6 -26 -6
-26 0 0 16 -33 11 -57 -9z"/>
<path d="M1 5713 l-1 -903 21 0 c12 0 28 -8 35 -17 12 -17 14 -17 44 0 40 22
47 21 53 -2 3 -13 -1 -21 -14 -24 -11 -3 -19 -11 -19 -17 0 -7 7 -10 16 -6 9
4 23 1 32 -6 13 -11 14 -10 8 9 -6 18 -2 22 24 28 31 7 38 19 20 30 -8 5 -7
11 0 21 12 14 11 31 -15 224 -8 58 -26 204 -40 325 -27 234 -33 286 -65 515
-62 453 -81 592 -89 655 -5 44 -9 -268 -10 -832z"/>
<path d="M5882 6225 c7 -16 20 -42 31 -57 10 -16 16 -32 12 -37 -3 -6 10 -32
30 -59 19 -27 35 -52 35 -54 0 -7 36 -49 118 -139 34 -37 62 -76 62 -86 0 -10
-8 -32 -19 -48 -13 -23 -18 -49 -17 -100 1 -63 3 -70 22 -73 18 -3 22 4 27 35
4 21 7 50 7 65 0 15 5 30 11 34 8 5 10 -5 7 -32 -3 -27 1 -49 16 -73 18 -32
21 -56 12 -146 -5 -47 -33 -58 -65 -26 -11 11 -23 16 -27 13 -4 -4 -4 1 -1 11
4 10 7 33 7 50 0 24 3 28 10 17 5 -8 7 -25 4 -36 -3 -12 -1 -25 5 -28 7 -5 11
9 11 42 0 42 -3 51 -21 55 -24 6 -34 -12 -26 -49 2 -14 -4 -41 -14 -61 -18
-36 -18 -36 3 -55 26 -22 48 -23 48 -2 0 11 6 14 23 9 38 -12 42 -23 18 -49
-22 -23 -22 -23 -1 -29 12 -3 18 -11 14 -20 -3 -8 2 -17 11 -21 13 -5 15 -1
10 14 -4 12 -2 20 5 20 7 0 9 12 5 34 -7 36 10 59 26 35 7 -11 9 -9 9 7 0 13
-8 24 -20 27 -16 4 -20 14 -20 45 0 23 5 44 11 48 6 3 9 19 5 35 -5 28 -5 29
39 29 25 0 45 -4 45 -10 0 -5 -16 -10 -36 -10 l-35 0 24 -32 c14 -18 22 -39
20 -46 -3 -7 1 -19 8 -28 10 -12 14 -12 20 -2 7 10 11 10 21 0 9 -9 9 -15 2
-20 -6 -4 -13 -15 -17 -25 -4 -10 -11 -16 -16 -12 -5 3 -13 -4 -16 -16 -4 -12
-12 -18 -21 -15 -7 3 -16 1 -19 -4 -3 -5 -8 -96 -11 -203 -5 -180 -4 -195 12
-201 12 -5 23 0 35 15 14 19 17 20 22 4 6 -15 17 -16 85 -11 42 4 82 6 87 6 6
-1 30 -2 55 -3 l45 -2 3 296 c2 235 0 297 -10 296 -30 -3 -108 15 -103 24 4 5
31 9 61 9 50 0 54 2 54 24 0 13 -6 27 -12 29 -10 4 -10 7 -1 14 9 6 13 38 12
101 -1 77 -4 92 -19 97 -9 3 -22 24 -29 48 -7 23 -15 50 -18 61 -4 14 -2 16 8
10 17 -9 -3 16 -40 53 -28 29 -32 26 -36 -29 -2 -24 -6 -81 -10 -128 -8 -88
-13 -168 -14 -231 -1 -33 -4 -37 -33 -42 -34 -5 -88 23 -88 45 0 5 -11 18 -24
29 -13 10 -30 32 -38 49 -13 28 -13 35 1 66 8 18 18 34 21 34 4 0 6 -21 4 -47
-2 -55 21 -101 67 -134 17 -12 31 -20 33 -18 19 24 22 44 9 57 -11 12 -12 17
-2 23 10 6 10 11 1 22 -10 11 -9 17 2 26 8 6 12 20 9 30 -2 10 0 51 6 92 7 54
7 75 -2 81 -8 5 -7 12 4 25 21 26 19 68 -3 67 -11 -1 -18 5 -18 16 0 10 -7 24
-17 31 -15 13 -15 12 -5 -7 13 -24 5 -39 -13 -24 -9 8 -11 4 -8 -14 4 -18 -1
-27 -17 -36 -39 -21 -47 3 -17 49 25 38 26 46 10 91 -3 8 -6 24 -7 35 -1 11
-9 21 -19 23 -16 3 -17 1 -5 -17 9 -15 10 -23 1 -32 -9 -9 -13 -3 -18 25 -8
40 -24 58 -27 29 -2 -33 -4 -38 -14 -57 -8 -13 -8 -31 -1 -57 7 -28 6 -43 -2
-53 -6 -7 -9 -20 -6 -28 8 -19 -36 -33 -47 -15 -11 16 1 69 18 83 18 15 18 38
-1 54 -22 18 -15 55 8 53 14 -1 18 4 13 20 -3 11 0 28 7 36 10 12 9 13 -3 6
-43 -24 -79 -58 -78 -73 3 -36 -3 -52 -17 -52 -8 0 -15 -5 -15 -11 0 -11 36
-3 55 12 6 4 17 4 25 -1 11 -7 11 -11 1 -24 -17 -20 -35 -21 -27 -1 7 20 4 19
-24 -5 -13 -12 -30 -18 -38 -15 -10 4 -12 0 -8 -12 4 -9 1 -20 -6 -25 -9 -6
-2 -8 20 -5 37 4 40 -4 10 -32 -18 -18 -19 -23 -7 -37 7 -9 24 -20 37 -25 13
-5 21 -13 17 -19 -3 -5 3 -18 14 -29 11 -11 16 -23 12 -26 -5 -3 -35 19 -66
49 -44 43 -55 59 -50 76 4 12 2 20 -5 20 -16 0 -59 52 -60 73 0 12 -8 17 -26
17 -17 0 -23 -4 -19 -12 4 -7 -2 -2 -13 12 -22 27 -21 40 2 21 10 -8 16 -9 21
-1 10 16 -59 105 -80 103 -11 -1 -25 6 -32 15 -11 14 -11 12 -1 -13z m580
-793 c-17 -5 -15 -32 3 -38 9 -4 15 -11 14 -18 -4 -29 3 -44 21 -49 27 -7 27
-47 0 -47 -11 0 -18 5 -15 13 2 6 -7 20 -20 30 -21 15 -25 15 -25 3 0 -8 4
-17 9 -20 12 -8 2 -46 -11 -46 -6 0 -7 -11 -4 -24 3 -14 1 -28 -4 -31 -6 -4
-8 -15 -5 -24 8 -28 -18 -82 -35 -71 -10 6 -11 12 -3 22 14 17 23 117 11 124
-4 3 -6 9 -4 13 9 14 14 136 6 156 -4 11 -3 28 2 38 8 17 11 16 40 -5 17 -12
26 -24 20 -26z"/>
<path d="M6340 4219 c0 -5 4 -8 9 -4 13 7 24 -12 15 -27 -4 -6 -8 -35 -9 -65
l-1 -53 102 0 c56 0 116 3 133 6 30 6 31 8 31 60 l0 54 -66 0 c-61 0 -66 1
-61 20 5 19 0 20 -74 20 -49 0 -79 -4 -79 -11z"/>
</g>
</svg>
